<?xml version="1.0" encoding="UTF-8"?>
<svg width="1200" height="630" viewBox="0 0 1200 630" xmlns="http://www.w3.org/2000/svg">
  <rect width="1200" height="630" fill="#0b1220"/>
  <g opacity="0.08" stroke="#22d3ee" stroke-width="1">
    <path d="M0,560 H1200 M0,490 H1200 M0,420 H1200 M0,350 H1200 M0,280 H1200 M0,210 H1200 M0,140 H1200" />
    <path d="M240,0 V630 M360,0 V630 M480,0 V630 M600,0 V630 M720,0 V630 M840,0 V630" />
  </g>
  <g transform="translate(360,110)">
    <rect x="0" y="0" width="90" height="90" fill="#22d3ee" rx="8"/>
    <rect x="100" y="0" width="90" height="90" fill="#22d3ee" rx="8"/>
    <rect x="200" y="0" width="90" height="90" fill="#22d3ee" rx="8"/>
    <rect x="300" y="0" width="90" height="90" fill="#22d3ee" rx="8"/>
    <rect x="0" y="110" width="90" height="90" fill="#f59e0b" rx="8"/>
    <rect x="0" y="220" width="90" height="90" fill="#f59e0b" rx="8"/>
    <rect x="100" y="110" width="90" height="90" fill="#ef4444" rx="8"/>
    <rect x="200" y="110" width="90" height="90" fill="#10b981" rx="8"/>
    <rect x="300" y="110" width="90" height="90" fill="#8b5cf6" rx="8"/>
  </g>
  <g transform="translate(28,24)">
    <rect x="0" y="0" rx="12" ry="12" width="150" height="40" fill="#22d3ee" fill-opacity="0.18" stroke="#22d3ee" stroke-opacity="0.35"/>
    <text x="75" y="26" text-anchor="middle" font-family="Inter, system-ui, -apple-system, Segoe UI, Roboto" font-size="18" fill="#e5e7eb">Puzzle</text>
  </g>
  <text x="600" y="568" text-anchor="middle" font-family="Inter, system-ui, -apple-system, Segoe UI, Roboto" font-size="46" fill="#e5e7eb">Tetris</text>
</svg>
