<?xml version="1.0" encoding="UTF-8" standalone="no"?>
<svg width="400" height="300" viewBox="0 0 400 300" xmlns="http://www.w3.org/2000/svg">
  <!-- 背景 -->
  <rect width="400" height="300" fill="#1a1a2e" />
  
  <!-- 星空背景 -->
  <circle cx="50" cy="30" r="1" fill="#ffffff" />
  <circle cx="100" cy="60" r="1.5" fill="#ffffff" />
  <circle cx="150" cy="40" r="1" fill="#ffffff" />
  <circle cx="200" cy="20" r="2" fill="#ffffff" />
  <circle cx="250" cy="50" r="1" fill="#ffffff" />
  <circle cx="300" cy="30" r="1.5" fill="#ffffff" />
  <circle cx="350" cy="70" r="1" fill="#ffffff" />
  <circle cx="70" cy="80" r="1" fill="#ffffff" />
  <circle cx="120" cy="100" r="1.5" fill="#ffffff" />
  <circle cx="170" cy="90" r="1" fill="#ffffff" />
  <circle cx="220" cy="110" r="2" fill="#ffffff" />
  <circle cx="270" cy="80" r="1" fill="#ffffff" />
  <circle cx="320" cy="120" r="1.5" fill="#ffffff" />
  <circle cx="370" cy="90" r="1" fill="#ffffff" />
  <circle cx="30" cy="130" r="1" fill="#ffffff" />
  <circle cx="80" cy="150" r="1.5" fill="#ffffff" />
  <circle cx="130" cy="140" r="1" fill="#ffffff" />
  <circle cx="180" cy="160" r="2" fill="#ffffff" />
  <circle cx="230" cy="130" r="1" fill="#ffffff" />
  <circle cx="280" cy="170" r="1.5" fill="#ffffff" />
  <circle cx="330" cy="140" r="1" fill="#ffffff" />
  <circle cx="60" cy="190" r="1" fill="#ffffff" />
  <circle cx="110" cy="210" r="1.5" fill="#ffffff" />
  <circle cx="160" cy="200" r="1" fill="#ffffff" />
  <circle cx="210" cy="220" r="2" fill="#ffffff" />
  <circle cx="260" cy="190" r="1" fill="#ffffff" />
  <circle cx="310" cy="230" r="1.5" fill="#ffffff" />
  <circle cx="360" cy="200" r="1" fill="#ffffff" />
  
  <!-- 玩家飞船 -->
  <path d="M 200,200 L 210,180 L 190,180 Z" fill="#3498db" />
  <rect x="195" y="180" width="10" height="15" fill="#3498db" />
  <path d="M 190,180 L 185,170 L 195,180 Z" fill="#e74c3c" />
  <path d="M 210,180 L 215,170 L 205,180 Z" fill="#e74c3c" />
  
  <!-- 敌人飞船 -->
  <path d="M 100,80 L 110,100 L 90,100 Z" fill="#e74c3c" />
  <rect x="95" y="70" width="10" height="15" fill="#e74c3c" />
  
  <path d="M 300,120 L 310,140 L 290,140 Z" fill="#e74c3c" />
  <rect x="295" y="110" width="10" height="15" fill="#e74c3c" />
  
  <path d="M 180,60 L 190,80 L 170,80 Z" fill="#e74c3c" />
  <rect x="175" y="50" width="10" height="15" fill="#e74c3c" />
  
  <!-- 子弹 -->
  <rect x="200" y="120" width="2" height="10" fill="#f1c40f" />
  <rect x="200" y="150" width="2" height="10" fill="#f1c40f" />
  
  <!-- 游戏标题 -->
  <text x="200" y="270" font-family="Arial, sans-serif" font-size="24" font-weight="bold" 
        text-anchor="middle" fill="#ecf0f1">Space Shooter</text>
</svg>