<?xml version="1.0" encoding="UTF-8"?>
<svg width="1200" height="630" viewBox="0 0 1200 630" xmlns="http://www.w3.org/2000/svg">
  <defs>
    <radialGradient id="bg" cx="50%" cy="40%" r="70%">
      <stop offset="0" stop-color="#101827"/>
      <stop offset="1" stop-color="#0b1220"/>
    </radialGradient>
    <linearGradient id="acc" x1="0" y1="0" x2="1" y2="1">
      <stop offset="0" stop-color="#f472b6"/>
      <stop offset="1" stop-color="#60a5fa"/>
    </linearGradient>
  </defs>
  <rect width="1200" height="630" fill="url(#bg)"/>
  <circle cx="320" cy="170" r="220" fill="url(#acc)" opacity="0.22"/>
  <g transform="translate(600,310)">
    <g transform="translate(-140,-110)">
      <circle cx="80" cy="80" r="60" fill="#fff"/>
      <circle cx="180" cy="80" r="60" fill="#fff"/>
      <rect x="40" y="120" width="180" height="120" rx="30" fill="#fff"/>
      <ellipse cx="80" cy="70" rx="14" ry="20" fill="#f472b6"/>
      <ellipse cx="180" cy="70" rx="14" ry="20" fill="#f472b6"/>
      <polygon points="130,180 150,150 170,180" fill="#0f172a" opacity="0.9"/>
      <polygon points="0,260 260,260 130,220" fill="url(#acc)" opacity="0.65"/>
    </g>
  </g>
  <g transform="translate(28,24)">
    <rect x="0" y="0" rx="12" ry="12" width="150" height="40" fill="#60a5fa" fill-opacity="0.18" stroke="#60a5fa" stroke-opacity="0.35"/>
    <text x="75" y="26" text-anchor="middle" font-family="Inter, system-ui, -apple-system, Segoe UI, Roboto" font-size="18" fill="#e5e7eb">Casual</text>
  </g>
  <text x="600" y="568" text-anchor="middle" font-family="Inter, system-ui, -apple-system, Segoe UI, Roboto" font-size="46" fill="#e5e7eb">Bunny Challenge</text>
</svg>
