<?xml version="1.0" encoding="UTF-8" standalone="no"?>
<svg width="300" height="200" viewBox="0 0 300 200" xmlns="http://www.w3.org/2000/svg">
  <!-- 背景 -->
  <rect width="300" height="200" rx="10" ry="10" fill="#f5e7b5" />
  
  <!-- 装饰元素 -->
  <g transform="translate(150, 100)">
    <!-- 中央圆形 -->
    <circle cx="0" cy="0" r="60" fill="#ffffff" stroke="#4caf50" stroke-width="3" />
    
    <!-- 地图标记 -->
    <g transform="translate(-30, -20)">
      <path d="M0,0 C0,-20 30,-20 30,0 Q30,10 15,30 Q0,10 0,0 Z" fill="#4caf50" />
      <circle cx="15" cy="10" r="5" fill="#ffffff" />
    </g>
    
    <!-- 地图标记 -->
    <g transform="translate(10, 5)">
      <path d="M0,0 C0,-15 20,-15 20,0 Q20,7 10,20 Q0,7 0,0 Z" fill="#8b4513" />
      <circle cx="10" cy="5" r="3" fill="#ffffff" />
    </g>
    
    <!-- 地图标记 -->
    <g transform="translate(-10, 15)">
      <path d="M0,0 C0,-10 15,-10 15,0 Q15,5 7.5,15 Q0,5 0,0 Z" fill="#ff9800" />
      <circle cx="7.5" cy="4" r="2" fill="#ffffff" />
    </g>
  </g>
  
  <!-- 文本标题 -->
  <text x="150" y="170" font-family="Arial, sans-serif" font-size="24" font-weight="bold" text-anchor="middle" fill="#8b4513">Baba Game</text>
  <text x="150" y="190" font-family="Arial, sans-serif" font-size="14" text-anchor="middle" fill="#4caf50">旅行足迹收集</text>
</svg> 