<?xml version="1.0" encoding="UTF-8"?>
<svg width="1200" height="630" viewBox="0 0 1200 630" xmlns="http://www.w3.org/2000/svg">
  <defs>
    <linearGradient id="g" x1="0" y1="0" x2="1" y2="1">
      <stop offset="0" stop-color="#0ea5e9"/>
      <stop offset="1" stop-color="#22d3ee"/>
    </linearGradient>
    <radialGradient id="r" cx="50%" cy="40%" r="60%">
      <stop offset="0" stop-color="#ffffff" stop-opacity="0.14"/>
      <stop offset="1" stop-color="#000000" stop-opacity="0"/>
    </radialGradient>
  </defs>
  <rect width="1200" height="630" fill="#0b0f17"/>
  <rect width="1200" height="630" fill="url(#r)"/>
  <g fill="#ffffff" opacity="0.7">
    <circle cx="120" cy="80" r="2"/><circle cx="240" cy="200" r="2"/>
    <circle cx="520" cy="120" r="2"/><circle cx="840" cy="150" r="2"/>
    <circle cx="1040" cy="60" r="2"/><circle cx="960" cy="260" r="2"/>
    <circle cx="300" cy="360" r="2"/><circle cx="700" cy="420" r="2"/>
  </g>
  <g transform="translate(600,315)">
    <g transform="translate(-260,-120)">
      <rect x="0" y="0" width="520" height="240" rx="16" fill="url(#g)" opacity="0.12"/>
      <rect x="16" y="16" width="488" height="208" rx="14" fill="none" stroke="url(#g)" stroke-opacity="0.4"/>
    </g>
    <g transform="scale(1.2)">
      <polygon points="-40,20 0,-40 40,20" fill="url(#g)"/>
      <rect x="-8" y="20" width="16" height="40" fill="url(#g)"/>
      <circle cx="0" cy="-20" r="6" fill="#fff" opacity="0.9"/>
    </g>
  </g>
  <text x="600" y="540" font-family="Inter, system-ui, -apple-system, Segoe UI, Roboto" font-size="42" text-anchor="middle" fill="#e5e7eb">
    Space Shooter
  </text>
</svg>